# xmcd
#
# Track frame offsets: 
#        150
#        18905
#        34440
#        61240
#        75970
#        100797
#        128137
#        148345
#        165510
#        200082
#        219957
#        249530
#
# Disc length: 3573 seconds
#
# Revision: 0
# Processed by: cddbd v1.4PL0 Copyright (c) Steve Scherf et al.
# Submitted via: ExactAudioCopy v0.90a11
#
DISCID=a10df30c
DTITLE=Lady Bianca - Rollin'
DYEAR=1900
DGENRE=
TTITLE0=Blues Fonk
TTITLE1=Lookin' At My Man
TTITLE2=Easy Lovin'
TTITLE3=Sexy Bones
TTITLE4=Keep My Baby Outta Your Eyes
TTITLE5=Spendin' Money
TTITLE6=You Slept With My Man Last Night
TTITLE7=Lyin' To Me
TTITLE8=Little Drop Of Water
TTITLE9=Daddy Blues Was A Witness
TTITLE10=Can You Slip Away Again Tonight
TTITLE11=Roll Thang
EXTD=
EXTT0=
EXTT1=
EXTT2=
EXTT3=
EXTT4=
EXTT5=
EXTT6=
EXTT7=
EXTT8=
EXTT9=
EXTT10=
EXTT11=
PLAYORDER=
